# xmcd
#
# Track frame offsets:
#	182
#	29772
#	53327
#	70935
#	90427
#	109805
#
# Disc length: 1870 seconds
#
# Revision: 0
# Processed by: cddbd v1.5.1PL0 Copyright (c) Steve Scherf et al.
# Submitted via: dBpowerAMP V4.0
#
DISCID=46074c06
DTITLE=Ibrahim Hamma Dicko - Ibrahim Hamma Dicko
DYEAR=1900
DGENRE=Blues
TTITLE0=Mariana
TTITLE1=Alfaro
TTITLE2=Achagal
TTITLE3=Hamidou
TTITLE4=Mahanonga Koy
TTITLE5=Andourinia
EXTD=
EXTT0=
EXTT1=
EXTT2=
EXTT3=
EXTT4=
EXTT5=
PLAYORDER=
